<?xml version="1.0" encoding="UTF-8"?>
<svg width="101px" height="19px" viewBox="0 0 101 19" version="1.1" xmlns="http://www.w3.org/2000/svg" xmlns:xlink="http://www.w3.org/1999/xlink">
    <!-- Generator: sketchtool 52.6 (67491) - http://www.bohemiancoding.com/sketch -->
    <title>E8147C9E-163A-4F9B-86AA-FD0C1EDA398D</title>
    <desc>Created with sketchtool.</desc>
    <g id="LP-DWCA" stroke="none" stroke-width="1" fill="none" fill-rule="evenodd">
        <g id="Chair-PDP" transform="translate(-161.000000, -68.000000)">
            <g id="Navigation">
                <g id="logo/dark" transform="translate(161.000000, 68.000000)">
                    <path d="M0.728,0.816 L11.624,0.816 L11.624,3.888 L3.968,3.888 L3.968,8.064 L10.856,8.064 L10.856,11.136 L3.968,11.136 L3.968,18 L0.728,18 L0.728,0.816 Z M20.692,16.464 L20.5,16.464 C20.1319982,17.056003 19.6360031,17.5239983 19.012,17.868 C18.3879969,18.2120017 17.676004,18.384 16.876,18.384 C15.3879926,18.384 14.2800037,17.9280046 13.552,17.016 C12.8239964,16.1039954 12.46,14.8880076 12.46,13.368 L12.46,6.24 L15.604,6.24 L15.604,12.984 C15.604,13.8320042 15.7919981,14.459998 16.168,14.868 C16.5440019,15.276002 17.0919964,15.48 17.812,15.48 C18.2440022,15.48 18.6239984,15.3880009 18.952,15.204 C19.2800017,15.0199991 19.5599989,14.7720016 19.792,14.46 C20.0240012,14.1479984 20.1999994,13.7800021 20.32,13.356 C20.4400006,12.9319979 20.5,12.4800024 20.5,12 L20.5,6.24 L23.644,6.24 L23.644,18 L20.692,18 L20.692,16.464 Z M25.632,6.24 L28.584,6.24 L28.584,7.872 L28.776,7.872 C28.9200007,7.58399856 29.1119988,7.3200012 29.352,7.08 C29.5920012,6.8399988 29.8599985,6.63200088 30.156,6.456 C30.4520015,6.27999912 30.7719983,6.14400048 31.116,6.048 C31.4600017,5.95199952 31.7999983,5.904 32.136,5.904 C32.5520021,5.904 32.9079985,5.9439996 33.204,6.024 C33.5000015,6.1040004 33.751999,6.20799936 33.96,6.336 L33.12,9.192 C32.9279991,9.09599952 32.7160012,9.02000028 32.484,8.964 C32.2519989,8.90799972 31.9680017,8.88 31.632,8.88 C31.1999979,8.88 30.8080018,8.96399916 30.456,9.132 C30.1039983,9.30000084 29.8040013,9.53599848 29.556,9.84 C29.3079988,10.1440015 29.1160007,10.499998 28.98,10.908 C28.8439993,11.316002 28.776,11.7599976 28.776,12.24 L28.776,18 L25.632,18 L25.632,6.24 Z M37.652,7.776 L37.844,7.776 C38.2120019,7.18399704 38.7079969,6.71600172 39.332,6.372 C39.9560032,6.02799828 40.667996,5.856 41.468,5.856 C42.2040037,5.856 42.8519972,5.9759988 43.412,6.216 C43.9720028,6.4560012 44.4319982,6.7959978 44.792,7.236 C45.1520018,7.6760022 45.4239991,8.20399692 45.608,8.82 C45.792001,9.43600308 45.884,10.1199962 45.884,10.872 L45.884,18 L42.74,18 L42.74,11.256 C42.74,10.4079958 42.5520019,9.78000204 42.176,9.372 C41.7999982,8.96399796 41.2520036,8.76 40.532,8.76 C40.0999979,8.76 39.7200017,8.85199908 39.392,9.036 C39.0639984,9.22000092 38.7840012,9.46799844 38.552,9.78 C38.3199989,10.0920016 38.1440006,10.4599979 38.024,10.884 C37.9039994,11.3080021 37.844,11.7599976 37.844,12.24 L37.844,18 L34.7,18 L34.7,6.24 L37.652,6.24 L37.652,7.776 Z M49.528,4.536 C49.2559987,4.536 48.9960013,4.48400052 48.748,4.38 C48.4999988,4.27599948 48.284001,4.13200092 48.1,3.948 C47.9159991,3.76399908 47.7720006,3.5520012 47.668,3.312 C47.5639995,3.0719988 47.512,2.80800144 47.512,2.52 C47.512,2.23199856 47.5639995,1.9680012 47.668,1.728 C47.7720006,1.4879988 47.9159991,1.27600092 48.1,1.092 C48.284001,0.90799908 48.4999988,0.76400052 48.748,0.66 C48.9960013,0.55599948 49.2559987,0.504 49.528,0.504 C50.0880028,0.504 50.567998,0.69999804 50.968,1.092 C51.368002,1.48400196 51.568,1.9599972 51.568,2.52 C51.568,3.0800028 51.368002,3.55599804 50.968,3.948 C50.567998,4.34000196 50.0880028,4.536 49.528,4.536 Z M47.968,18 L47.968,6.24 L51.112,6.24 L51.112,18 L47.968,18 Z M54.4680001,8.928 L52.4040001,8.928 L52.4040001,6.24 L54.4680001,6.24 L54.4680001,2.64 L57.6120001,2.64 L57.6120001,6.24 L60.4920001,6.24 L60.4920001,8.928 L57.6120001,8.928 L57.6120001,13.488 C57.6120001,13.7600014 57.6399998,14.0119988 57.6960001,14.244 C57.7520003,14.4760012 57.8599993,14.6719992 58.0200001,14.832 C58.2440012,15.0880013 58.563998,15.216 58.9800001,15.216 C59.2520014,15.216 59.4679993,15.1880003 59.6280001,15.132 C59.7880009,15.0759997 59.9399993,15.0000005 60.0840001,14.904 L60.9720001,17.664 C60.6039982,17.8400009 60.2080022,17.9719996 59.7840001,18.06 C59.3599979,18.1480004 58.8920026,18.192 58.3800001,18.192 C57.7879971,18.192 57.2560024,18.1000009 56.7840001,17.916 C56.3119977,17.7319991 55.9160017,17.4800016 55.5960001,17.16 C54.8439963,16.4399964 54.4680001,15.4160066 54.4680001,14.088 L54.4680001,8.928 Z M70.2320001,16.464 L70.0400001,16.464 C69.6719982,17.056003 69.1760032,17.5239983 68.5520001,17.868 C67.927997,18.2120017 67.2160041,18.384 66.4160001,18.384 C64.9279926,18.384 63.8200037,17.9280046 63.0920001,17.016 C62.3639964,16.1039954 62.0000001,14.8880076 62.0000001,13.368 L62.0000001,6.24 L65.1440001,6.24 L65.1440001,12.984 C65.1440001,13.8320042 65.3319982,14.459998 65.7080001,14.868 C66.084002,15.276002 66.6319965,15.48 67.3520001,15.48 C67.7840022,15.48 68.1639984,15.3880009 68.4920001,15.204 C68.8200017,15.0199991 69.0999989,14.7720016 69.3320001,14.46 C69.5640012,14.1479984 69.7399995,13.7800021 69.8600001,13.356 C69.9800007,12.9319979 70.0400001,12.4800024 70.0400001,12 L70.0400001,6.24 L73.1840001,6.24 L73.1840001,18 L70.2320001,18 L70.2320001,16.464 Z M75.1720001,6.24 L78.1240001,6.24 L78.1240001,7.872 L78.3160001,7.872 C78.4600008,7.58399856 78.6519989,7.3200012 78.8920001,7.08 C79.1320013,6.8399988 79.3999986,6.63200088 79.6960001,6.456 C79.9920016,6.27999912 80.3119984,6.14400048 80.6560001,6.048 C81.0000018,5.95199952 81.3399984,5.904 81.6760001,5.904 C82.0920022,5.904 82.4479986,5.9439996 82.7440001,6.024 C83.0400016,6.1040004 83.291999,6.20799936 83.5000001,6.336 L82.6600001,9.192 C82.4679991,9.09599952 82.2560012,9.02000028 82.0240001,8.964 C81.7919989,8.90799972 81.5080018,8.88 81.1720001,8.88 C80.7399979,8.88 80.3480018,8.96399916 79.9960001,9.132 C79.6439983,9.30000084 79.3440013,9.53599848 79.0960001,9.84 C78.8479988,10.1440015 78.6560008,10.499998 78.5200001,10.908 C78.3839994,11.316002 78.3160001,11.7599976 78.3160001,12.24 L78.3160001,18 L75.1720001,18 L75.1720001,6.24 Z M94.6560001,15.168 C94.1119974,16.1280048 93.3800047,16.903997 92.4600001,17.496 C91.5399955,18.088003 90.4160067,18.384 89.0880001,18.384 C88.1919956,18.384 87.3640039,18.2280016 86.6040001,17.916 C85.8439963,17.6039984 85.1840029,17.1680028 84.6240001,16.608 C84.0639973,16.0479972 83.6280017,15.3880038 83.3160001,14.628 C83.0039985,13.8679962 82.8480001,13.0320046 82.8480001,12.12 C82.8480001,11.2719958 82.9999986,10.4680038 83.3040001,9.708 C83.6080016,8.9479962 84.0319974,8.28400284 84.5760001,7.716 C85.1200028,7.14799716 85.7639964,6.69600168 86.5080001,6.36 C87.2520038,6.02399832 88.0719956,5.856 88.9680001,5.856 C89.9120048,5.856 90.7519964,6.01199844 91.4880001,6.324 C92.2240038,6.63600156 92.8399976,7.06799724 93.3360001,7.62 C93.8320026,8.17200276 94.2079988,8.82399624 94.4640001,9.576 C94.7200014,10.3280038 94.8480001,11.1439956 94.8480001,12.024 L94.8480001,12.312 C94.832,12.4080005 94.8240001,12.4959996 94.8240001,12.576 C94.808,12.6560004 94.8000001,12.7439995 94.8000001,12.84 L85.9440001,12.84 C86.0080004,13.3200024 86.1399991,13.7319983 86.3400001,14.076 C86.5400011,14.4200017 86.7879986,14.7079988 87.0840001,14.94 C87.3800016,15.1720012 87.7039983,15.3399995 88.0560001,15.444 C88.4080019,15.5480005 88.7679983,15.6 89.1360001,15.6 C89.8560037,15.6 90.4519977,15.4360016 90.9240001,15.108 C91.3960025,14.7799984 91.7679987,14.3680025 92.0400001,13.872 L94.6560001,15.168 Z M91.8000001,10.608 C91.784,10.399999 91.7160007,10.1680013 91.5960001,9.912 C91.4759995,9.65599872 91.3000013,9.41600112 91.0680001,9.192 C90.8359989,8.96799888 90.5480018,8.78400072 90.2040001,8.64 C89.8599984,8.49599928 89.4480025,8.424 88.9680001,8.424 C88.2959967,8.424 87.7040027,8.61599808 87.1920001,9 C86.6799975,9.38400192 86.3200011,9.91999656 86.1120001,10.608 L91.8000001,10.608 Z" id="logo" fill="#2C2E3F"></path>
                    <circle id="Oval" fill="#578094" cx="98.5" cy="16.5" r="2.5"></circle>
                </g>
            </g>
        </g>
    </g>
</svg>